#!OML:ASF G:\JayActor3\Patient Classification 1\Patient 1\Session 5\male.ASF
:FULLY-SPECIFIED
:DEGREES
696
root 48.8704 16.135 -5.70258 818.039 93.0308 821.151
lowerback -0.0558456 -0.0918076 0.662468
upperback 2.49657 -0.0929887 -0.751369
thorax 2.58891 -0.0130205 -1.14386
lowerneck -7.98658 3.95909 6.02892
upperneck 9.44073 4.74473 -1.14865
head 4.30638 2.50191 -1.03349
rclavicle 1.93815e-015 1.35174e-014
rhumerus -33.2092 -13.3179 -83.2631
rradius 24.1039
rwrist 8.42663
rhand -18.3512 -2.88197
rfingers 7.12502
rthumb 7.93135 -32.7132
lclavicle 1.93815e-015 1.35174e-014
lhumerus -23.1225 -1.71258 83.0398
lradius 31.8888
lwrist 15.7254
lhand -18.4726 13.8985
lfingers 7.12502
lthumb 7.81424 43.7341
rfemur -14.2703 4.92782 21.7428
rtibia 40.8233
rfoot -24.6052 -17.7716
rtoes 2.16906
lfemur -4.74758 10.6138 -19.4325
ltibia 26.0514
lfoot -16.3974 0.00458259
ltoes -4.06125
697
root 48.9017 16.1351 -5.69493 818.48 92.9757 821.583
lowerback -0.0999743 -0.0662156 0.666509
upperback 2.47955 -0.0589151 -0.774372
thorax 2.59707 0.00418803 -1.16901
lowerneck -7.99962 3.96018 6.01457
upperneck 9.55462 4.75077 -1.17057
head 4.34385 2.50502 -1.03618
rclavicle 0 9.54166e-015
rhumerus -33.1927 -13.1873 -83.3553
rradius 24.2311
rwrist 8.31346
rhand -18.3603 -2.88628
rfingers 7.12502
rthumb 7.92255 -32.7178
lclavicle 0 9.54166e-015
lhumerus -23.1564 -1.68598 83.0777
lradius 31.8748
lwrist 15.6893
lhand -18.507 13.8974
lfingers 7.12502
lthumb 7.78098 43.7342
rfemur -14.0366 4.94194 21.7586
rtibia 40.6626
rfoot -24.5117 -17.9376
rtoes 2.80467
lfemur -4.53368 10.5531 -19.4556
ltibia 25.8854
lfoot -16.4495 0.0717925
ltoes -4.0599
698
root 48.9332 16.1351 -5.68717 818.842 92.92 821.945
lowerback -0.14006 -0.0422837 0.674169
upperback 2.46307 -0.027132 -0.795044
thorax 2.60349 0.020303 -1.19381
lowerneck -8.00033 3.96898 6.01405
upperneck 9.65707 4.7684 -1.21168
head 4.37699 2.5131 -1.04654
rclavicle -1.2921e-015 7.95139e-015
rhumerus -33.1767 -13.0343 -83.4514
rradius 24.3623
rwrist 8.18563
rhand -18.3687 -2.89533
rfingers 7.12502
rthumb 7.91445 -32.7272
lclavicle -1.2921e-015 7.95139e-015
lhumerus -23.2065 -1.63091 83.1244
lradius 31.8293
lwrist 15.6416
lhand -18.5471 13.8928
lfingers 7.12502
lthumb 7.7423 43.7311
rfemur -13.7765 4.94616 21.7698
rtibia 40.5111
rfoot -24.5598 -18.0414
rtoes 3.05915
lfemur -4.30455 10.4788 -19.4781
ltibia 25.7164
lfoot -16.5045 0.146361
ltoes -4.06195
699
root 48.9648 16.1351 -5.67906 819.141 92.8666 822.25
lowerback -0.183666 -0.020718 0.683279
upperback 2.4486 0.00138331 -0.811893
thorax 2.61391 0.0348029 -1.21556
lowerneck -8.00557 3.9847 6.01556
upperneck 9.7622 4.79513 -1.2548
head 4.41216 2.5256 -1.05712
rclavicle 1.44119e-015 -6.36111e-015
rhumerus -33.1531 -12.8691 -83.5493
rradius 24.4924
rwrist 8.05534
rhand -18.3695 -2.90889
rfingers 7.12502
rthumb 7.91377 -32.7408
lclavicle 1.44119e-015 -6.36111e-015
lhumerus -23.2719 -1.54507 83.1788
lradius 31.7545
lwrist 15.5826
lhand -18.5924 13.8949
lfingers 7.12502
lthumb 7.69862 43.7348
rfemur -13.5045 4.95032 21.7761
rtibia 40.3534
rfoot -24.6946 -18.0903
rtoes 3.08732
lfemur -4.06325 10.3887 -19.4983
ltibia 25.5378
lfoot -16.5566 0.2367
ltoes -4.07874
700
root 48.9965 16.1354 -5.67063 819.491 92.8128 822.609
lowerback -0.231226 -0.000234757 0.690228
upperback 2.43698 0.0284459 -0.825943
thorax 2.62947 0.0485467 -1.23324
lowerneck -7.99663 4.00387 6.02391
upperneck 9.8471 4.82756 -1.30742
head 4.43939 2.54034 -1.07179
rclavicle -3.47873e-016 -7.15625e-015
rhumerus -33.1187 -12.6967 -83.6471
rradius 24.6166
rwrist 7.92348
rhand -18.3667 -2.92713
rfingers 7.12502
rthumb 7.91646 -32.7589
lclavicle -3.47873e-016 -7.15625e-015
lhumerus -23.3505 -1.42383 83.2404
lradius 31.6477
lwrist 15.5105
lhand -18.6449 13.8953
lfingers 7.12502
lthumb 7.64792 43.737
rfemur -13.2322 4.96387 21.7697
rtibia 40.18
rfoot -24.8502 -18.0862
rtoes 3.09092
lfemur -3.80764 10.271 -19.5239
ltibia 25.3456
lfoot -16.6042 0.360548
ltoes -4.10676
701
root 49.0282 16.1366 -5.66186 819.879 92.7658 823.008
lowerback -0.284723 0.0198121 0.700075
upperback 2.42875 0.0547401 -0.834151
thorax 2.65187 0.0619554 -1.24654
lowerneck -7.97481 4.02262 6.03591
upperneck 9.91031 4.86023 -1.36472
head 4.45804 2.55477 -1.08893
rclavicle -2.48481e-017 -7.95139e-015
rhumerus -33.0643 -12.5268 -83.7405
rradius 24.7268
rwrist 7.80747
rhand -18.3622 -2.96775
rfingers 7.12502
rthumb 7.92077 -32.7994
lclavicle -2.48481e-017 -7.95139e-015
lhumerus -23.4418 -1.27548 83.3128
lradius 31.5117
lwrist 15.4316
lhand -18.7081 13.8901
lfingers 7.12502
lthumb 7.58695 43.734
rfemur -12.9642 4.9679 21.7616
rtibia 39.9934
rfoot -24.9641 -18.051
rtoes 3.10211
lfemur -3.54269 10.1215 -19.5483
ltibia 25.1397
lfoot -16.6442 0.524031
ltoes -4.14925
702
root 49.0593 16.1388 -5.65283 820.213 92.7308 823.349
lowerback -0.346771 0.0370319 0.716846
upperback 2.42365 0.0768923 -0.834069
thorax 2.68221 0.0733959 -1.25529
lowerneck -7.94415 4.04225 6.04358
upperneck 9.95466 4.89447 -1.41694
head 4.46928 2.56986 -1.10407
rclavicle 7.45443e-016 8.74653e-015
rhumerus -32.9895 -12.3558 -83.8297
rradius 24.8278
rwrist 7.70655
rhand -18.3671 -3.00508
rfingers 7.12502
rthumb 7.91602 -32.8369
lclavicle 7.45443e-016 8.74653e-015
lhumerus -23.5473 -1.09216 83.3948
lradius 31.3515
lwrist 15.3419
lhand -18.7798 13.8792
lfingers 7.12502
lthumb 7.51769 43.7256
rfemur -12.7108 4.95718 21.7588
rtibia 39.7985
rfoot -25.0304 -17.9974
rtoes 3.1023
lfemur -3.28058 9.93756 -19.567
ltibia 24.9274
lfoot -16.6766 0.725641
ltoes -4.19728
703
root 49.09 16.1417 -5.64356 820.467 92.7131 823.604
lowerback -0.419831 0.0521206 0.74589
upperback 2.42027 0.0956295 -0.824869
thorax 2.72045 0.08332 -1.2616
lowerneck -7.90605 4.0624 6.0535
upperneck 9.9805 4.92956 -1.47039
head 4.47373 2.58512 -1.12022
rclavicle -1.27968e-015 7.15625e-015
rhumerus -32.8938 -12.1865 -83.9138
rradius 24.9151
rwrist 7.61603
rhand -18.3777 -3.04922
rfingers 7.12502
rthumb 7.9058 -32.8814
lclavicle -1.27968e-015 7.15625e-015
lhumerus -23.665 -0.883701 83.4862
lradius 31.1644
lwrist 15.2454
lhand -18.8545 13.8643
lfingers 7.12502
lthumb 7.44564 43.7133
rfemur -12.4778 4.92695 21.7679
rtibia 39.6038
rfoot -25.0562 -17.9235
rtoes 3.10104
lfemur -3.03135 9.72573 -19.5739
ltibia 24.7186
lfoot -16.7044 0.959432
ltoes -4.25192
704
root 49.1198 16.1452 -5.63403 820.6 92.7241 823.722
lowerback -0.507668 0.0655029 0.797697
upperback 2.41626 0.111071 -0.802902
thorax 2.76632 0.0919412 -1.26762
lowerneck -7.86482 4.08735 6.06552
upperneck 9.99617 4.97076 -1.52217
head 4.4748 2.60341 -1.13594
rclavicle -1.98785e-015 -8.74653e-015
rhumerus -32.7747 -12.0213 -83.9901
rradius 24.9822
rwrist 7.53596
rhand -18.3893 -3.0963
rfingers 7.12502
rthumb 7.89457 -32.9289
lclavicle -1.98785e-015 -8.74653e-015
lhumerus -23.7959 -0.662261 83.5894
lradius 30.9527
lwrist 15.1506
lhand -18.9339 13.8324
lfingers 7.12502
lthumb 7.36899 43.684
rfemur -12.2739 4.87789 21.8032
rtibia 39.4125
rfoot -25.0481 -17.8374
rtoes 3.09919
lfemur -2.81236 9.48533 -19.5573
ltibia 24.5265
lfoot -16.7317 1.223
ltoes -4.31128
705
root 49.1488 16.149 -5.62447 820.603 92.7567 823.697
lowerback -0.608644 0.0751476 0.867316
upperback 2.4109 0.120601 -0.771342
thorax 2.81811 0.097892 -1.27391
lowerneck -7.83292 4.11573 6.07952
upperneck 10.0118 5.0152 -1.56983
head 4.47753 2.62354 -1.1503
rclavicle -2.11209e-015 -1.66979e-014
rhumerus -32.6393 -11.8603 -84.0596
rradius 25.0369
rwrist 7.46772
rhand -18.3988 -3.14247
rfingers 7.12502
rthumb 7.88542 -32.9754
lclavicle -2.11209e-015 -1.66979e-014
lhumerus -23.939 -0.42275 83.7
lradius 30.7135
lwrist 15.0511
lhand -19.0028 13.8055
lfingers 7.12502
lthumb 7.30242 43.6595
rfemur -12.095 4.80022 21.8562
rtibia 39.2246
rfoot -25.0173 -17.7299
rtoes 3.10833
lfemur -2.62878 9.23154 -19.5229
ltibia 24.3625
lfoot -16.7628 1.50104
ltoes -4.35969
